<?xml version="1.0" standalone="no"?>
<!DOCTYPE svg PUBLIC "-//W3C//DTD SVG 20010904//EN"
 "http://www.w3.org/TR/2001/REC-SVG-20010904/DTD/svg10.dtd">
<svg version="1.0" xmlns="http://www.w3.org/2000/svg"
 width="626.000000pt" height="463.000000pt" viewBox="0 0 626.000000 463.000000"
 preserveAspectRatio="xMidYMid meet">

<g transform="translate(0.000000,463.000000) scale(0.100000,-0.100000)"
fill="#000000" stroke="none">
<path d="M1235 3629 c-4 -6 -4 -13 -1 -16 3 -4 6 -1 6 5 0 9 59 12 220 12 156
0 220 -3 220 -11 0 -8 4 -8 15 1 8 6 19 9 25 5 5 -3 10 -1 10 4 0 15 -486 15
-495 0z"/>
<path d="M1333 3603 l87 -4 0 -60 c0 -38 -4 -58 -10 -54 -5 3 -10 1 -10 -4 0
-6 7 -11 15 -11 12 0 15 14 15 64 l0 65 33 4 c17 2 -24 4 -93 3 -91 0 -101 -1
-37 -3z"/>
<path d="M1234 3500 l1 -105 248 -3 247 -2 -2 102 -2 103 -3 -87 -4 -88 -42
-2 -42 -1 45 -7 c25 -4 -65 -7 -200 -7 -135 0 -229 3 -210 7 l35 7 -32 2 -32
1 -4 93 -3 92 0 -105z"/>
<path d="M1528 3593 c6 -2 18 -2 25 0 6 3 1 5 -13 5 -14 0 -19 -2 -12 -5z"/>
<path d="M4384 3587 c-2 -7 -3 -62 -2 -123 l3 -109 325 0 325 0 0 120 0 120
-323 3 c-261 2 -323 0 -328 -11z m577 -19 c1 -22 1 -22 9 2 7 21 8 18 11 -20
l2 -45 7 45 c6 39 7 40 8 13 1 -18 6 -33 11 -33 6 0 12 15 14 33 2 17 5 -15 5
-73 1 -71 -2 -110 -10 -118 -8 -8 -51 -12 -129 -12 -147 0 -226 23 -185 53 10
8 16 20 13 28 -4 10 -6 9 -6 -3 -1 -28 -19 -21 -24 10 -3 21 -4 19 -6 -11 -1
-26 -5 -37 -13 -35 -9 3 -14 30 -16 76 -2 60 0 72 13 72 10 0 15 -10 15 -30 0
-28 3 -30 35 -30 34 0 35 1 33 38 -1 36 -1 36 -5 5 -4 -27 -9 -33 -29 -33 -21
0 -24 5 -24 35 0 34 -1 35 -37 34 -21 -1 -51 -5 -68 -9 l-30 -8 35 -2 c19 -1
38 -2 41 -2 3 1 7 -26 8 -59 1 -43 -2 -59 -11 -59 -8 0 -6 -5 5 -11 9 -5 17
-17 17 -24 0 -8 8 -15 18 -15 9 0 22 -4 29 -8 6 -4 -57 -7 -140 -8 -84 0 -137
2 -119 6 49 11 51 20 5 20 -24 0 -43 -5 -46 -12 -3 -7 -6 37 -6 99 l-1 112
285 1 285 0 1 -22z"/>
<path d="M4890 3565 c0 -6 -24 -9 -55 -8 l-55 1 0 -79 c0 -64 -3 -79 -15 -79
-10 0 -15 11 -16 38 -1 36 -1 37 -8 7 -9 -36 5 -69 25 -61 9 3 12 1 9 -4 -3
-6 -1 -10 4 -10 6 0 11 9 11 21 0 11 3 18 8 16 4 -3 6 28 4 69 l-4 74 38 0
c21 0 46 -7 56 -17 14 -13 18 -13 18 -2 0 16 -20 49 -20 34z"/>
<path d="M4700 3535 c0 -14 5 -25 10 -25 6 0 10 11 10 25 0 14 -4 25 -10 25
-5 0 -10 -11 -10 -25z"/>
<path d="M4530 3540 c0 -5 -9 -10 -19 -10 -11 0 -23 -5 -26 -10 -4 -6 -11 -7
-17 -4 -7 4 -8 2 -4 -4 5 -8 13 -8 31 0 32 15 46 1 20 -19 -12 -9 -14 -14 -5
-10 10 3 16 -1 16 -13 0 -12 -6 -16 -16 -13 -9 4 -7 -1 5 -10 33 -25 7 -33
-34 -10 -30 17 -38 19 -38 7 0 -8 6 -13 13 -10 7 3 18 -2 24 -10 11 -12 5 -14
-35 -14 -66 0 -54 -6 25 -13 38 -3 57 -1 45 3 -19 8 -19 9 3 9 21 1 22 5 22
71 0 39 -2 70 -5 70 -3 0 -5 -4 -5 -10z"/>
<path d="M4934 3516 c51 -31 61 -43 47 -60 -7 -9 -9 -16 -3 -16 5 0 12 7 16
15 6 18 -2 45 -15 45 -5 0 -9 6 -9 14 0 8 -11 13 -27 13 -25 0 -26 -1 -9 -11z"/>
<path d="M4570 3500 c0 -13 7 -20 20 -20 13 0 20 7 20 20 0 13 -7 20 -20 20
-13 0 -20 -7 -20 -20z m30 0 c0 -5 -4 -10 -10 -10 -5 0 -10 5 -10 10 0 6 5 10
10 10 6 0 10 -4 10 -10z"/>
<path d="M4830 3500 c0 -13 7 -20 20 -20 13 0 20 7 20 20 0 13 -7 20 -20 20
-13 0 -20 -7 -20 -20z m30 0 c0 -5 -4 -10 -10 -10 -5 0 -10 5 -10 10 0 6 5 10
10 10 6 0 10 -4 10 -10z"/>
<path d="M4430 3482 c0 -12 3 -12 15 -2 8 7 15 13 15 15 0 1 -7 2 -15 2 -8 0
-15 -7 -15 -15z"/>
<path d="M4895 3477 c-6 -13 -21 -23 -36 -25 -22 -3 -28 -9 -32 -35 -2 -18 1
-35 7 -39 15 -10 136 -10 136 0 0 4 -23 5 -50 4 -54 -4 -93 13 -68 30 10 6 10
10 -2 18 -12 8 -11 10 6 10 11 0 29 9 39 20 22 24 43 27 24 3 -12 -14 -12 -16
0 -12 23 8 24 27 4 38 -15 8 -21 5 -28 -12z"/>
<path d="M4570 3410 c0 -35 2 -39 14 -28 8 7 10 15 5 16 -16 6 -10 40 9 45 13
4 11 5 -5 6 -20 1 -23 -4 -23 -39z"/>
<path d="M4890 3428 c0 -13 8 -18 28 -18 15 0 37 -3 50 -6 13 -4 22 -2 22 5 0
6 -9 11 -21 11 -11 0 -17 5 -14 10 4 6 -5 5 -20 -2 -22 -10 -28 -9 -36 3 -7
11 -9 11 -9 -3z"/>
<path d="M4991 3394 c-7 -8 -10 -18 -7 -21 7 -7 36 16 36 28 0 13 -13 10 -29
-7z"/>
<path d="M1461 3533 c-1 -35 3 -63 8 -63 5 0 11 4 13 9 5 15 57 21 64 9 5 -7
0 -9 -14 -6 -12 4 -22 2 -22 -3 0 -5 11 -9 25 -9 16 0 25 6 25 15 0 8 -1 15
-3 15 -1 0 -17 4 -35 9 -18 6 -30 6 -27 1 3 -4 -2 -11 -11 -14 -14 -5 -15 -1
-11 26 3 18 2 42 -3 53 -6 14 -9 2 -9 -42z"/>
<path d="M1320 3560 c0 -5 -6 -10 -14 -10 -7 0 -20 -7 -27 -17 -13 -15 -12
-15 11 -3 14 8 36 19 50 27 25 13 25 13 3 13 -13 0 -23 -4 -23 -10z"/>
<path d="M1594 3558 c-4 -7 -3 -8 4 -4 6 4 25 0 42 -9 17 -9 37 -14 43 -12 7
3 3 8 -8 12 -11 3 -28 11 -37 16 -23 12 -35 11 -44 -3z"/>
<path d="M1512 3548 c3 -7 17 -14 32 -16 29 -4 34 17 6 26 -7 3 -10 0 -6 -7 4
-6 0 -11 -9 -11 -9 0 -13 5 -10 10 3 6 1 10 -5 10 -7 0 -10 -6 -8 -12z"/>
<path d="M1331 3521 c-17 -11 -4 -34 15 -27 9 3 14 -1 14 -13 0 -38 29 -49
129 -47 65 1 98 -2 107 -11 7 -7 16 -13 21 -13 4 1 -3 10 -16 20 -13 11 -18
20 -12 20 6 0 11 16 11 35 0 19 -4 35 -9 35 -4 0 -6 -11 -4 -23 7 -35 -23 -60
-61 -53 -49 10 -69 10 -99 2 -17 -5 -33 -4 -42 4 -18 15 -20 46 -2 54 6 3 -4
3 -23 0 -33 -4 -34 -3 -16 11 21 16 10 21 -13 6z"/>
<path d="M1610 3526 c0 -2 7 -9 15 -16 9 -7 15 -8 15 -2 0 5 -7 12 -15 16 -8
3 -15 4 -15 2z"/>
<path d="M1664 3485 c-18 -14 -18 -14 4 -8 12 3 22 9 22 14 0 12 -3 11 -26 -6z"/>
<path d="M1293 3479 c9 -6 15 -15 12 -20 -4 -5 -11 -7 -16 -4 -5 4 -9 -1 -9
-9 0 -12 11 -16 46 -16 27 0 43 4 39 10 -3 6 -16 10 -27 10 -12 0 -18 3 -15 7
7 7 -22 32 -38 32 -5 0 -2 -4 8 -10z"/>
<path d="M1625 3460 c-4 -6 3 -10 14 -10 25 0 27 6 6 13 -8 4 -17 2 -20 -3z"/>
<path d="M3185 3288 c-69 -35 -111 -75 -143 -136 -28 -53 -34 -58 -59 -55 -18
3 -40 -4 -63 -19 -34 -23 -35 -26 -42 -108 -10 -134 -9 -332 2 -371 14 -50 45
-67 141 -78 81 -9 81 -9 125 -59 76 -87 158 -122 236 -102 33 9 59 29 114 86
61 64 75 74 105 74 65 0 109 13 134 38 l25 25 0 233 0 233 -37 26 c-23 15 -52
25 -73 25 -24 0 -39 6 -47 19 -10 15 -10 21 0 25 8 3 3 11 -12 23 -14 10 -42
32 -63 50 -21 17 -53 35 -70 38 -44 10 -53 16 -37 26 17 10 -14 17 -116 22
-67 4 -87 1 -120 -15z m230 -188 c13 0 36 -11 52 -24 15 -12 34 -21 42 -18 21
7 41 -26 41 -67 0 -19 5 -72 12 -117 11 -74 10 -93 -10 -186 -15 -71 -30 -115
-49 -142 -40 -56 -53 -57 -53 -3 0 59 -19 79 -71 75 -50 -4 -55 -22 -9 -26 50
-5 63 -19 55 -61 -4 -20 -11 -42 -17 -48 -12 -15 -48 -17 -48 -3 0 6 -13 10
-30 10 -16 0 -30 -4 -30 -10 0 -17 -36 -11 -54 9 -9 10 -19 34 -23 54 l-5 35
51 7 c34 5 51 12 51 21 0 17 -55 19 -94 4 -23 -8 -26 -15 -26 -60 0 -27 -4
-50 -8 -50 -12 0 -67 61 -83 90 -15 30 -38 183 -39 261 0 53 19 96 53 120 5 3
7 15 5 25 -2 13 2 18 15 16 10 -2 17 3 17 13 0 12 6 15 19 10 13 -4 35 5 64
26 44 31 107 51 135 43 8 -2 24 -4 37 -4z m-376 -296 c16 -37 25 -130 13 -138
-25 -15 -74 118 -59 158 8 21 32 10 46 -20z m631 -1 c-1 -41 -23 -95 -55 -136
-16 -20 -30 -35 -31 -34 0 1 2 37 7 80 8 83 26 117 61 117 13 0 18 -7 18 -27z"/>
<path d="M3151 2851 c-20 -13 -3 -18 74 -22 57 -3 70 -1 70 11 0 12 -15 16
-65 18 -36 1 -71 -2 -79 -7z"/>
<path d="M3374 2849 c-14 -23 14 -31 80 -24 36 4 66 11 66 15 0 20 -134 28
-146 9z"/>
<path d="M3205 2779 c-5 -14 -1 -27 9 -37 15 -15 17 -15 33 1 14 13 15 21 7
35 -16 25 -41 26 -49 1z"/>
<path d="M3414 2786 c-10 -26 0 -51 21 -51 16 0 20 7 20 30 0 33 -30 49 -41
21z"/>
<path d="M3328 2633 c7 -3 16 -2 19 1 4 3 -2 6 -13 5 -11 0 -14 -3 -6 -6z"/>
<path d="M3807 3283 c-4 -3 -7 -47 -7 -96 0 -50 3 -87 7 -83 4 4 6 46 4 93 -2
68 0 85 11 81 7 -3 33 -2 58 2 l45 7 -56 2 c-31 0 -59 -2 -62 -6z"/>
<path d="M3920 3253 c0 -22 32 -43 66 -43 31 0 34 -2 34 -30 0 -27 -3 -30 -29
-30 -23 0 -31 5 -34 23 l-4 22 -8 -22 c-10 -31 -74 -33 -95 -3 -20 28 -30 25
-30 -7 l0 -28 102 5 103 5 3 38 3 37 -40 0 c-30 0 -44 6 -55 22 -9 12 -16 17
-16 11z"/>
<path d="M717 3114 c-4 -4 -7 -61 -7 -126 l0 -118 102 0 c56 0 98 3 94 7 -4 4
-47 6 -97 5 -57 -2 -89 1 -89 7 0 11 64 16 123 12 18 -2 27 3 27 12 0 8 14 47
30 87 17 40 28 76 25 79 -3 3 -8 -5 -12 -18 -4 -17 -11 -22 -28 -18 -15 2 -22
0 -19 -8 3 -6 -7 -17 -21 -25 -31 -17 -32 -26 -2 -40 20 -10 20 -10 5 3 -10 8
-15 17 -11 20 3 4 12 2 20 -4 8 -8 13 -8 13 -1 0 6 -6 12 -12 15 -7 3 -3 4 10
4 12 -1 22 -3 22 -4 0 -11 -30 -73 -35 -73 -4 0 -26 12 -51 26 -24 14 -44 21
-44 15 0 -6 4 -11 9 -11 5 0 27 -10 50 -23 l41 -23 -70 -2 -70 -2 0 100 0 100
145 0 c131 0 145 -2 145 -17 0 -27 -13 -42 -34 -40 -15 2 -26 -14 -48 -67 -15
-39 -27 -74 -25 -79 1 -5 11 14 21 42 10 28 22 48 27 45 5 -3 9 -1 9 5 0 6 7
8 15 5 8 -4 15 -10 15 -16 0 -5 -4 -7 -9 -4 -5 3 -11 -1 -14 -9 -5 -12 -2 -12
18 -3 31 14 31 22 0 36 -27 12 -36 48 -10 38 26 -10 45 5 45 35 0 27 3 29 40
29 l39 0 4 -110 3 -110 0 112 -1 113 -191 3 c-104 1 -193 -1 -197 -4z"/>
<path d="M803 3034 c0 -9 5 -10 19 -3 10 5 18 12 18 14 0 2 -8 3 -18 2 -10 0
-19 -7 -19 -13z"/>
<path d="M1051 3031 c-8 -5 -21 -7 -30 -4 -9 2 -4 -3 12 -12 15 -8 27 -19 27
-24 0 -9 -36 -35 -80 -58 -14 -7 -19 -13 -12 -13 7 0 24 7 37 16 15 10 25 12
25 5 0 -6 -4 -11 -10 -11 -5 0 -10 -9 -10 -21 0 -29 17 -15 25 21 5 24 12 30
33 30 15 0 22 4 16 8 -17 11 -24 40 -11 45 8 3 9 8 2 15 -6 7 -16 8 -24 3z"/>
<path d="M1082 2900 c0 -19 2 -27 5 -17 2 9 2 25 0 35 -3 9 -5 1 -5 -18z"/>
<path d="M980 2879 c0 -5 9 -9 20 -9 11 0 20 2 20 4 0 2 -9 6 -20 9 -11 3 -20
1 -20 -4z"/>
<path d="M2034 2517 c-2 -7 -3 -62 -2 -123 l3 -109 313 -3 312 -2 0 -36 c0
-28 -10 -47 -45 -89 -61 -71 -133 -191 -210 -351 -58 -119 -63 -135 -55 -166
13 -44 39 -78 47 -60 4 10 15 4 39 -19 19 -18 34 -36 34 -41 0 -12 92 -93 102
-90 5 1 7 -2 4 -7 -4 -5 6 -23 20 -40 19 -23 24 -38 20 -56 -5 -20 -3 -25 11
-24 11 0 13 2 5 6 -10 4 -10 8 -1 19 9 11 8 18 -2 31 -12 14 -12 16 1 11 23
-7 28 -42 29 -204 1 -142 0 -153 -25 -202 -14 -29 -29 -52 -34 -52 -9 0 -14
12 -85 220 -29 85 -74 213 -99 283 -25 71 -46 137 -46 148 0 10 -9 28 -20 39
-11 11 -17 27 -14 37 3 10 -2 6 -11 -9 l-16 -28 -705 0 c-584 0 -706 -2 -710
-14 -3 -7 54 -179 125 -382 88 -246 131 -383 131 -411 0 -23 3 -48 6 -57 6
-14 103 -16 1008 -15 550 1 1257 5 1570 8 l570 6 -32 37 c-22 24 -58 47 -110
68 -42 18 -90 43 -107 56 l-31 23 -79 -19 c-63 -15 -468 -104 -627 -137 -25
-5 -28 -3 -28 21 0 15 -7 29 -15 32 -8 3 -142 7 -297 8 l-283 1 -3 43 c-3 40
0 47 37 81 45 42 49 51 24 51 -12 0 -14 3 -6 11 6 6 16 8 22 5 12 -8 145 -16
138 -10 -2 3 -24 9 -48 14 -36 7 -28 8 45 5 94 -4 128 -14 55 -16 l-44 -1 50
-8 c28 -4 70 -17 95 -30 83 -42 93 -42 193 -4 51 20 108 42 127 49 19 7 53 20
75 28 22 9 83 31 135 50 52 19 134 49 181 67 l85 31 3 91 c1 66 -2 94 -11 101
-9 6 -8 7 5 3 12 -4 17 0 17 12 0 22 121 70 198 79 31 3 56 12 59 19 3 8 9 12
13 9 22 -13 16 61 -21 275 -39 231 -63 325 -79 315 -4 -3 -16 8 -25 23 l-18
27 24 -20 24 -20 -24 27 c-20 23 -27 26 -40 16 -12 -9 -13 -9 -6 0 6 7 8 43 4
92 -6 86 -22 115 -80 146 -28 14 -177 30 -329 36 l-85 3 3 -52 c3 -41 -1 -59
-17 -82 -26 -36 -27 -48 -3 -30 15 13 16 12 3 -3 -7 -10 -17 -16 -21 -13 -4 3
-24 -2 -44 -10 -40 -17 -122 -20 -160 -5 -14 5 -39 29 -57 52 -28 39 -30 48
-25 96 l6 54 -42 -6 c-24 -3 -104 -8 -178 -11 -185 -9 -228 -22 -264 -80 l-29
-45 -311 0 c-177 0 -305 4 -297 9 9 6 10 11 2 15 -7 5 -11 45 -11 107 l0 99
325 0 325 0 0 -63 c0 -36 -5 -68 -12 -75 -9 -9 -9 -12 0 -12 16 0 24 37 20
101 l-3 54 -328 3 c-265 2 -328 0 -333 -11z m1154 -256 c13 -17 19 -31 13 -31
-6 0 -11 3 -11 8 0 4 -11 20 -25 36 -14 16 -25 36 -25 45 0 12 4 10 13 -6 6
-11 22 -35 35 -52z m308 31 c-15 -15 -15 -15 -4 10 7 15 15 23 17 17 2 -6 -4
-18 -13 -27z m-476 -12 c0 -5 -4 -10 -10 -10 -5 0 -10 5 -10 10 0 6 5 10 10
10 6 0 10 -4 10 -10z m40 0 c0 -5 -4 -10 -10 -10 -5 0 -10 5 -10 10 0 6 5 10
10 10 6 0 10 -4 10 -10z m540 0 c0 -5 -4 -10 -10 -10 -5 0 -10 5 -10 10 0 6 5
10 10 10 6 0 10 -4 10 -10z m-679 -30 c10 0 19 -4 19 -10 0 -5 14 -10 30 -10
17 0 30 -4 30 -10 0 -5 -13 -10 -30 -10 -16 0 -30 5 -30 10 0 6 -9 10 -20 10
-11 0 -20 5 -20 10 0 6 -7 10 -16 10 -20 0 -49 -29 -39 -38 4 -4 10 -1 12 6
10 26 23 10 23 -28 l0 -40 -40 0 c-37 0 -40 2 -40 28 0 24 -3 22 -30 -25 -27
-46 -50 -74 -50 -58 0 16 72 146 83 149 49 14 93 20 95 14 2 -5 12 -8 23 -8z
m159 -6 c0 -11 -29 -34 -44 -34 -19 0 -20 6 -3 25 12 14 47 21 47 9z m706 -11
c7 -10 14 -28 14 -41 l0 -23 -34 28 c-27 20 -32 30 -24 40 14 18 28 16 44 -4z
m-365 -19 c-19 -9 -57 -17 -85 -20 -47 -3 -45 -3 18 11 38 8 71 17 74 20 3 3
10 5 16 4 6 0 -4 -7 -23 -15z m99 6 c0 -5 -5 -10 -11 -10 -5 0 -7 5 -4 10 3 6
8 10 11 10 2 0 4 -4 4 -10z m80 0 c0 -5 -4 -10 -10 -10 -5 0 -10 5 -10 10 0 6
5 10 10 10 6 0 10 -4 10 -10z m-329 -18 c-7 -2 -18 1 -23 6 -8 8 -4 9 13 5 13
-4 18 -8 10 -11z m-598 -11 c-13 -11 -23 -27 -24 -38 0 -10 -3 -13 -6 -5 -2 6
-10 9 -16 6 -7 -4 2 7 18 24 17 17 35 31 40 31 6 0 0 -8 -12 -18z m1163 -26
c7 -27 6 -29 -9 -16 -10 7 -17 25 -17 39 0 33 16 18 26 -23z m93 9 c-13 -16
-29 -10 -29 11 0 8 7 11 20 8 16 -4 18 -8 9 -19z m-1319 -69 c-13 -14 -20 -31
-17 -39 7 -18 37 -22 37 -6 0 6 4 10 9 10 13 0 21 -68 11 -93 -7 -17 -9 -18
-9 -4 -1 18 -41 25 -41 7 0 -5 -20 -10 -45 -10 -38 0 -46 -4 -59 -27 -8 -16
-15 -24 -16 -20 0 14 69 134 100 174 9 12 20 20 23 16 4 -3 9 2 13 11 4 9 9
14 12 11 3 -3 -5 -16 -18 -30z m1307 -12 c-3 -10 -5 -2 -5 17 0 19 2 27 5 18
2 -10 2 -26 0 -35z m-1261 10 c-10 -10 -19 5 -10 18 6 11 8 11 12 0 2 -7 1
-15 -2 -18z m1212 -54 c-3 -16 -1 -29 4 -29 4 0 8 -11 8 -25 0 -26 -18 -35
-25 -12 -2 6 -5 43 -7 80 -4 63 -3 66 10 41 8 -14 12 -39 10 -55z m177 -20 c6
-17 9 -19 16 -8 6 10 9 6 9 -13 0 -20 -4 -26 -15 -22 -8 4 -15 15 -15 25 0 10
-4 19 -10 19 -5 0 -10 5 -10 10 0 18 19 10 25 -11z m-1323 -58 c0 -33 -5 -56
-16 -66 -14 -14 -17 -15 -22 -2 -3 9 -1 24 5 36 6 11 11 33 11 49 0 27 9 47
17 38 2 -2 4 -27 5 -55z m1165 -73 c-2 -13 -4 -3 -4 22 0 25 2 35 4 23 2 -13
2 -33 0 -45z m-37 32 c0 -11 -4 -20 -10 -20 -5 0 -10 9 -10 20 0 11 5 20 10
20 6 0 10 -9 10 -20z m264 -255 c-3 -27 -2 -34 4 -20 7 16 10 13 15 -20 7 -45
8 -42 -18 -47 -19 -3 -20 2 -17 70 1 39 -2 72 -7 72 -4 0 -8 44 -8 98 l0 97
18 -105 c10 -58 16 -123 13 -145z m-1656 175 c1 -22 -2 -40 -6 -40 -4 0 -13
-14 -20 -30 -8 -17 -18 -28 -23 -24 -5 3 -9 -9 -9 -27 0 -20 -8 -38 -22 -50
-11 -11 -23 -18 -25 -16 -2 3 99 226 103 227 0 0 1 -18 2 -40z m722 -30 c0
-11 -39 -24 -47 -16 -3 3 -3 12 0 20 6 15 47 11 47 -4z m707 -77 c-2 -16 -4
-3 -4 27 0 30 2 43 4 28 2 -16 2 -40 0 -55z m-767 58 c0 -10 -290 -22 -305
-12 -5 3 15 9 45 12 89 9 260 10 260 0z m737 -63 c-3 -7 -5 -2 -5 12 0 14 2
19 5 13 2 -7 2 -19 0 -25z m-658 -39 c1 -33 -4 -55 -14 -65 -10 -10 -15 -34
-15 -70 0 -56 16 -74 23 -26 2 15 5 -3 6 -40 1 -66 0 -68 -24 -68 -18 0 -25 5
-25 19 0 11 5 23 10 26 6 3 10 12 10 18 0 7 -10 0 -21 -15 -21 -28 -21 -28
-145 -28 -81 0 -123 -4 -119 -10 3 -5 0 -10 -7 -10 -7 0 -23 15 -34 33 -18 28
-22 50 -23 135 -1 56 -4 109 -7 116 -4 11 33 15 188 23 106 5 193 10 194 11 0
1 2 -21 3 -49z m-535 -58 c-4 -44 -11 -81 -16 -81 -9 0 -3 113 9 153 10 38 13
7 7 -72z m59 21 c2 -32 1 -48 -4 -40 -5 7 -8 36 -8 63 1 60 6 50 12 -23z
m1144 -9 c-3 -10 -5 -4 -5 12 0 17 2 24 5 18 2 -7 2 -21 0 -30z m131 -105 c-4
-31 -4 -29 -12 14 -5 26 -5 56 0 65 6 14 9 11 12 -14 2 -18 2 -48 0 -65z
m-1271 30 c-3 -8 -6 -5 -6 6 -1 11 2 17 5 13 3 -3 4 -12 1 -19z m-252 -18 c3
-6 -1 -7 -9 -4 -18 7 -21 14 -7 14 6 0 13 -4 16 -10z m75 -55 c0 6 5 3 10 -7
6 -10 7 -25 1 -40 -8 -20 -16 -11 -12 14 0 4 -7 4 -16 1 -13 -5 -15 -2 -10 11
4 10 7 25 8 34 0 14 2 13 9 -3 5 -11 9 -15 10 -10z m193 11 c6 -15 -1 -26 -15
-26 -4 0 -8 9 -8 20 0 23 15 27 23 6z m1364 -18 c-3 -8 -6 -5 -6 6 -1 11 2 17
5 13 3 -3 4 -12 1 -19z m-130 -20 c-3 -7 -5 -2 -5 12 0 14 2 19 5 13 2 -7 2
-19 0 -25z m-1177 -39 c0 -38 -24 -35 -28 4 -2 19 1 27 12 27 11 0 16 -10 16
-31z m-160 1 c0 -5 -4 -10 -10 -10 -5 0 -10 5 -10 10 0 6 5 10 10 10 6 0 10
-4 10 -10z m-20 -60 c0 -5 -2 -10 -4 -10 -3 0 -8 5 -11 10 -3 6 -1 10 4 10 6
0 11 -4 11 -10z m101 -263 c0 -70 5 -130 11 -133 12 -8 -10 -34 -29 -34 -11 0
-13 5 -7 18 4 9 9 77 12 150 2 73 6 132 8 130 2 -2 4 -61 5 -131z m995 71 c4
-5 -4 -8 -17 -8 -20 0 -21 -2 -9 -11 12 -9 11 -9 -5 -4 -11 4 -30 10 -43 12
-12 3 -24 8 -26 12 -6 9 91 8 100 -1z m57 -5 c-7 -2 -19 -2 -25 0 -7 3 -2 5
12 5 14 0 19 -2 13 -5z m-126 -29 c-3 -3 -12 -4 -19 -1 -8 3 -5 6 6 6 11 1 17
-2 13 -5z m-12 -24 c-3 -5 -13 -10 -21 -10 -8 0 -12 5 -9 10 3 6 13 10 21 10
8 0 12 -4 9 -10z m-46 -24 c-12 -10 -59 -15 -59 -6 0 5 14 10 32 10 17 0 29
-2 27 -4z m-269 -65 c0 -5 10 -12 23 -14 20 -4 20 -4 -4 -6 -14 0 -34 6 -45
14 -19 14 -18 14 4 15 12 0 22 -4 22 -9z m-513 -17 c-3 -3 -12 -4 -19 -1 -8 3
-5 6 6 6 11 1 17 -2 13 -5z m468 -15 c-4 -5 0 -9 7 -10 7 0 2 -5 -11 -10 -13
-5 -26 -7 -29 -4 -3 3 0 5 6 5 7 0 12 9 12 21 0 11 5 17 10 14 6 -4 8 -11 5
-16z m-224 -5 c17 -8 29 -17 27 -20 -7 -6 -68 19 -68 28 0 11 7 10 41 -8z m66
-40 c-3 -3 -12 -4 -19 -1 -8 3 -5 6 6 6 11 1 17 -2 13 -5z"/>
<path d="M2241 2496 c7 -7 88 -11 94 -5 3 3 -18 7 -47 8 -28 1 -50 -1 -47 -3z"/>
<path d="M2203 2476 c1 -5 -11 -11 -28 -11 -27 -1 -115 -45 -90 -45 6 0 24 9
40 20 45 30 55 26 55 -20 0 -37 -1 -39 -19 -28 -18 11 -18 13 -3 25 15 12 14
13 -5 3 -23 -11 -23 -11 14 -48 20 -20 44 -38 52 -40 46 -11 79 -13 84 -5 3 5
-10 7 -28 5 -69 -8 -113 82 -65 133 16 17 17 22 6 22 -8 0 -14 -5 -13 -11z"/>
<path d="M2363 2455 c-3 -9 -3 -19 1 -22 3 -4 6 1 6 10 0 10 7 17 15 17 8 0
15 -7 15 -15 0 -8 7 -15 16 -15 9 0 14 -8 13 -17 -4 -46 2 -103 12 -103 6 0 8
10 5 23 -3 12 -3 16 0 9 3 -6 10 -10 15 -6 5 3 9 -2 9 -10 0 -9 5 -16 10 -16
6 0 10 12 10 26 0 14 -4 23 -10 19 -6 -4 -10 6 -11 22 l-1 28 -8 -25 c-4 -14
-9 -18 -9 -10 -1 8 -4 25 -7 38 -5 16 -2 22 10 22 9 0 16 5 16 11 0 5 -5 7
-12 3 -8 -5 -9 -2 -5 10 4 10 3 15 -3 11 -6 -3 -10 -13 -10 -20 0 -9 -6 -12
-15 -9 -8 4 -15 12 -15 20 0 19 -39 18 -47 -1z"/>
<path d="M2483 2463 c9 -2 17 -10 17 -17 0 -7 19 -18 42 -25 30 -10 38 -15 27
-22 -20 -12 -32 -11 -23 3 4 7 3 8 -5 4 -6 -4 -9 -12 -6 -17 4 -5 2 -17 -4
-26 -8 -15 -10 -16 -15 -3 -12 39 -16 42 -10 10 3 -19 6 -41 7 -47 1 -17 25
-16 42 1 12 12 12 15 0 20 -23 9 -18 25 16 45 l30 18 -35 14 c-26 11 -33 18
-26 29 7 11 14 12 37 2 26 -11 27 -11 9 3 -25 19 -56 19 -56 0 0 -8 -4 -15
-10 -15 -5 0 -10 7 -10 15 0 9 -9 15 -22 14 -17 -1 -19 -2 -5 -6z m67 -127 c0
-3 -4 -8 -10 -11 -5 -3 -10 -1 -10 4 0 6 5 11 10 11 6 0 10 -2 10 -4z"/>
<path d="M2232 2448 c-14 -14 -15 -47 -3 -67 5 -8 8 1 7 25 l-1 39 45 -2 c32
-2 41 0 30 7 -21 13 -64 12 -78 -2z"/>
<path d="M2615 2441 c-6 -11 13 -26 22 -17 4 3 1 6 -6 6 -7 0 -9 5 -6 10 3 6
4 10 1 10 -3 0 -7 -4 -11 -9z"/>
<path d="M2312 2416 c7 -8 15 -12 17 -11 5 6 -10 25 -20 25 -5 0 -4 -6 3 -14z"/>
<path d="M2240 2410 c0 -12 8 -12 35 0 18 8 17 9 -7 9 -16 1 -28 -3 -28 -9z"/>
<path d="M2361 2384 c0 -11 3 -14 6 -6 3 7 2 16 -1 19 -3 4 -6 -2 -5 -13z"/>
<path d="M2400 2378 c0 -18 -5 -25 -16 -24 -9 0 -20 -9 -25 -22 -8 -21 -6 -22
25 -20 33 2 34 2 28 42 -6 48 -12 60 -12 24z"/>
<path d="M2080 2386 c0 -2 7 -7 16 -10 8 -3 12 -2 9 4 -6 10 -25 14 -25 6z"/>
<path d="M2280 2380 c12 -8 10 -10 -9 -10 -13 0 -22 -3 -18 -6 3 -3 21 -3 39
1 29 7 30 9 13 16 -28 11 -43 10 -25 -1z"/>
<path d="M2600 2369 l-25 -20 32 15 c28 14 32 14 37 0 3 -9 4 -28 0 -42 l-5
-27 15 26 c31 54 -6 86 -54 48z"/>
<path d="M2132 2355 c9 -10 21 -16 28 -13 7 2 -1 10 -16 17 -27 12 -28 11 -12
-4z"/>
<path d="M2173 2313 c9 -2 25 -2 35 0 9 3 1 5 -18 5 -19 0 -27 -2 -17 -5z"/>
<path d="M2568 2313 c6 -2 18 -2 25 0 6 3 1 5 -13 5 -14 0 -19 -2 -12 -5z"/>
<path d="M777 2163 c-3 -5 19 -6 49 -5 44 3 54 1 54 -12 0 -11 -9 -16 -30 -16
-27 0 -30 -3 -30 -30 0 -16 -4 -30 -10 -30 -5 0 -10 -6 -10 -14 0 -11 9 -13
38 -9 20 3 39 10 40 15 5 12 72 10 72 -2 0 -5 -7 -10 -15 -10 -8 0 -15 -4 -15
-10 0 -5 -17 -10 -37 -10 -21 0 -45 -5 -53 -10 -10 -7 6 -10 55 -10 87 0 116
16 114 63 l-2 32 -7 -35 c-4 -19 -8 -30 -9 -25 -1 6 -6 3 -12 -5 -9 -12 -10
-10 -6 8 4 18 -2 28 -29 45 -21 13 -37 33 -41 50 -5 25 -9 27 -59 27 -29 0
-55 -3 -57 -7z m113 -43 c0 -5 -5 -10 -11 -10 -5 0 -7 5 -4 10 3 6 8 10 11 10
2 0 4 -4 4 -10z"/>
<path d="M687 1893 c-4 -3 -7 -60 -7 -125 l0 -118 417 0 c229 0 414 2 412 5
-3 2 -188 5 -412 6 l-407 1 0 114 0 115 409 -3 c225 -2 407 0 404 5 -5 9 -807
10 -816 0z"/>
<path d="M760 1865 c14 -7 35 -11 48 -8 24 6 67 -31 56 -48 -3 -5 0 -9 6 -9 7
0 9 7 6 16 -5 13 -1 15 19 12 14 -3 25 -2 25 3 0 4 -12 10 -27 12 -16 2 56 5
158 6 197 1 205 -1 188 -44 -4 -12 -8 -14 -8 -5 -1 11 -4 11 -13 2 -10 -10
-10 -15 2 -22 11 -7 18 -3 28 16 8 14 11 32 9 39 -4 9 1 11 15 7 12 -3 18 -11
15 -21 -3 -9 -7 -23 -9 -31 -3 -8 -3 -12 -1 -7 3 4 10 4 16 0 6 -4 8 0 4 10
-3 9 2 26 13 39 11 13 19 19 20 13 0 -10 178 -10 188 0 3 3 -37 5 -89 5 -55 0
-88 4 -81 9 28 17 -25 21 -316 21 -260 -1 -294 -2 -272 -15z"/>
<path d="M4387 1873 c-4 -3 -7 -60 -7 -125 l0 -118 168 2 c142 2 150 3 51 5
-116 4 -117 4 -123 29 -5 19 -11 24 -24 19 -9 -4 -23 -9 -29 -12 -7 -3 -13 0
-13 6 0 6 7 11 15 11 10 0 15 10 15 28 l1 27 14 -25 c14 -24 14 -24 15 -3 0
12 -6 23 -12 26 -10 3 -10 7 0 20 7 9 12 28 9 44 -4 25 -4 24 -6 -7 -1 -28 -4
-32 -12 -20 -9 13 -10 13 -6 -2 3 -9 0 -24 -8 -34 -7 -10 -11 -24 -8 -31 4 -9
0 -11 -13 -6 -10 4 -15 2 -11 -3 3 -6 2 -16 -4 -24 -5 -10 -9 21 -9 87 l0 102
158 4 157 3 -156 2 c-86 1 -159 -1 -162 -5z m73 -217 c0 -2 -16 -6 -35 -8 -19
-2 -35 0 -35 4 0 4 16 8 35 8 19 0 35 -2 35 -4z"/>
<path d="M4517 1839 c7 -7 15 -10 18 -7 3 3 -2 9 -12 12 -14 6 -15 5 -6 -5z"/>
<path d="M4619 1846 c-3 -3 -2 -24 0 -48 l5 -43 7 35 c6 33 6 33 8 -13 0 -30
-3 -46 -9 -42 -6 4 -10 -8 -10 -27 0 -19 -5 -39 -12 -46 -9 -9 -5 -12 18 -11
19 0 24 3 14 7 -12 5 -14 15 -9 37 l7 30 1 -27 c0 -16 6 -28 11 -28 6 0 10 35
10 84 l0 85 33 4 c23 3 17 4 -19 5 -28 1 -53 0 -55 -2z"/>
<path d="M941 1818 c1 -17 2 -19 6 -5 5 21 33 23 33 2 0 -9 9 -15 23 -14 16 1
18 2 5 6 -26 7 -22 18 7 21 16 1 25 -3 25 -12 0 -8 6 -17 13 -20 10 -5 10 -7
0 -12 -19 -8 -16 -54 2 -54 18 0 19 -11 3 -29 -9 -9 -9 -12 -1 -7 6 3 14 -1
16 -11 3 -10 4 10 3 44 -1 34 2 59 6 57 3 -2 9 0 13 6 11 18 64 11 75 -10 20
-37 -14 -86 -52 -77 -7 2 -10 2 -5 0 4 -3 7 -11 7 -19 0 -22 27 -16 33 7 3 12
10 18 15 15 8 -5 23 27 21 43 0 2 5 8 13 12 10 7 9 9 -3 9 -9 0 -19 9 -22 20
-3 11 -1 18 3 15 12 -8 60 16 54 26 -3 5 -43 9 -89 9 -71 0 -84 -3 -88 -17 -4
-17 -5 -17 -6 0 -1 14 -11 17 -56 17 -51 0 -55 -2 -54 -22z"/>
<path d="M797 1819 c-9 -5 -22 -7 -29 -3 -7 5 -8 3 -4 -5 5 -8 0 -14 -13 -18
-12 -3 -21 -12 -21 -20 0 -12 3 -12 16 2 9 8 29 22 45 30 16 9 29 18 29 20 0
7 -2 6 -23 -6z"/>
<path d="M832 1793 c-2 -41 -14 -55 -27 -33 -3 6 -1 10 4 10 6 0 11 5 11 10 0
7 -7 7 -22 -1 l-21 -11 26 -17 c16 -9 27 -25 27 -38 0 -27 19 -41 31 -22 5 8
9 29 9 47 0 17 5 32 10 32 6 0 10 -13 10 -29 0 -45 8 -59 34 -54 46 9 24 125
-24 122 -13 0 -13 -1 0 -6 23 -9 30 -24 30 -65 0 -27 -4 -38 -15 -38 -11 0
-15 11 -15 41 0 33 -3 40 -17 37 -13 -2 -19 -14 -21 -41 -5 -61 -21 -42 -25
31 -2 41 -4 50 -5 25z"/>
<path d="M1316 1805 c-9 -26 -7 -32 5 -12 6 10 9 21 6 23 -2 3 -7 -2 -11 -11z"/>
<path d="M1345 1773 c-9 -27 -24 -58 -31 -70 -8 -13 -10 -23 -4 -23 5 0 10 6
10 13 0 9 2 9 9 -1 7 -11 9 -11 14 2 4 9 4 22 1 29 -2 7 3 30 11 51 9 21 14
40 12 42 -2 3 -12 -17 -22 -43z"/>
<path d="M1410 1800 c19 -12 38 -28 42 -34 6 -8 8 -7 8 2 0 7 -7 15 -15 18 -8
4 -13 9 -10 13 2 4 -1 8 -8 8 -7 0 -21 4 -32 8 -11 4 -4 -3 15 -15z"/>
<path d="M4503 1750 c0 -41 2 -58 4 -37 2 20 2 54 0 75 -2 20 -4 3 -4 -38z"/>
<path d="M4578 1813 c-2 -5 -1 -35 3 -68 l6 -60 1 68 c2 61 -1 80 -10 60z"/>
<path d="M702 1790 c0 -14 2 -19 5 -12 2 6 2 18 0 25 -3 6 -5 1 -5 -13z"/>
<path d="M1370 1782 c0 -6 9 -12 20 -15 11 -3 20 -3 20 -1 0 2 -9 8 -20 14
-11 6 -20 7 -20 2z"/>
<path d="M980 1755 c0 -14 5 -25 11 -25 6 0 8 -8 4 -19 -4 -14 -1 -19 9 -17
19 3 34 16 18 16 -6 0 -9 7 -5 17 4 10 2 14 -5 9 -6 -3 -13 -2 -17 4 -3 5 -1
10 4 10 6 0 11 7 11 15 0 8 -7 15 -15 15 -9 0 -15 -9 -15 -25z"/>
<path d="M1104 1765 c-4 -9 -2 -21 4 -27 15 -15 44 -1 40 19 -4 23 -36 29 -44
8z m36 -10 c0 -8 -4 -15 -9 -15 -13 0 -22 16 -14 24 11 11 23 6 23 -9z"/>
<path d="M1295 1749 c-7 -21 -8 -21 -20 -5 -12 15 -14 14 -24 -15 -13 -39 -13
-39 -1 -39 6 0 10 9 10 20 0 28 20 25 20 -2 1 -16 5 -11 15 17 8 21 12 41 10
43 -2 2 -6 -7 -10 -19z"/>
<path d="M1217 1753 c-4 -3 -7 -16 -6 -27 0 -19 1 -19 10 3 10 24 8 36 -4 24z"/>
<path d="M720 1738 c0 -6 7 -7 16 -4 8 3 25 1 37 -5 18 -9 20 -9 10 1 -15 16
-63 22 -63 8z"/>
<path d="M1403 1732 c-24 -13 -32 -23 -32 -42 1 -21 2 -22 6 -5 6 24 25 38 34
24 3 -5 11 2 17 16 6 14 11 25 9 24 -1 0 -17 -8 -34 -17z"/>
<path d="M806 1705 c4 -8 8 -15 10 -15 2 0 4 7 4 15 0 8 -4 15 -10 15 -5 0 -7
-7 -4 -15z"/>
<path d="M961 1696 c7 -15 15 -23 17 -16 3 7 -3 19 -13 28 -15 16 -16 15 -4
-12z"/>
<path d="M4552 1671 c-11 -6 -9 -9 6 -13 15 -4 19 -2 15 8 -6 16 -4 16 -21 5z"/>
<path d="M4698 1663 c7 -3 16 -2 19 1 4 3 -2 6 -13 5 -11 0 -14 -3 -6 -6z"/>
<path d="M2410 1554 c8 -8 23 -20 34 -26 16 -8 15 -4 -6 16 -30 28 -48 35 -28
10z"/>
<path d="M4160 1499 c0 -15 -5 -19 -15 -15 -11 4 -14 -1 -13 -20 l2 -26 18 22
c16 20 25 60 13 60 -3 0 -5 -9 -5 -21z"/>
</g>
</svg>
